<svg width="162" height="175" viewBox="0 0 162 175" fill="none" xmlns="http://www.w3.org/2000/svg">
<path d="M53.101 97.264C49.9953 97.264 48.2251 100.793 50.0271 103.341C57.0335 113.267 68.619 119.739 81.7096 119.739C94.8003 119.739 106.375 113.257 113.382 103.341C115.184 100.793 113.413 97.264 110.308 97.264H53.101Z" fill="url(#paint0_linear_59302_122)"/>
<path d="M71.2901 82.2415H52.5498V72.8164C52.5498 67.6134 56.7472 63.3914 61.9199 63.3914C67.0926 63.3914 71.2901 67.6134 71.2901 72.8164V82.2415Z" fill="url(#paint1_linear_59302_122)"/>
<path d="M110.869 82.2415H92.1292V72.8164C92.1292 67.6134 96.3267 63.3914 101.499 63.3914C106.672 63.3914 110.869 67.6134 110.869 72.8164V82.2415Z" fill="url(#paint2_linear_59302_122)"/>
<path d="M154.412 87.5029C162.837 71.7908 164.557 56.0654 157.535 43.9043C150.512 31.7419 136.134 25.4098 118.387 24.8146C117.098 22.6941 115.702 20.639 114.206 18.6587C115.75 16.6529 116.592 14.1935 116.602 11.662C116.612 5.23116 111.407 0.00935805 104.977 1.6701e-05C101.824 -0.0053212 98.8032 1.2691 96.6067 3.53104C92.0268 1.24642 86.9851 0.0387164 81.8674 0.00135118C67.7326 0.00135118 54.8963 9.46946 45.4722 24.8026C27.6023 25.339 13.0805 31.7152 6.04381 43.9029C-0.992885 56.092 0.75261 71.7841 9.17449 87.4976C1.88691 100.945 -0.399043 114.419 3.53099 125.762C-1.07963 130.237 -1.18905 137.603 3.28545 142.214C7.29421 146.343 13.717 146.922 18.3984 143.578C26.7709 148.168 36.1749 150.549 45.7231 150.497C55.1152 165.598 67.8487 174.912 81.8714 174.912C95.8927 174.912 108.562 165.642 117.946 150.602C122.06 150.498 126.157 150.032 130.19 149.212C133.736 154.587 140.969 156.071 146.345 152.525C149.6 150.378 151.567 146.744 151.584 142.845C151.572 141.656 151.376 140.476 151.003 139.347C153.593 137.044 155.8 134.343 157.544 131.347C164.431 119.413 163.294 103.893 154.412 87.5029ZM152.485 46.8188C158.103 56.5498 157.149 69.0124 150.996 81.8394C145.474 73.4509 138.842 65.8497 131.28 59.2401C129.345 49.3102 126.095 39.682 121.613 30.6102C135.7 31.7352 146.894 37.1345 152.485 46.8188ZM114.853 144.777C106.714 144.592 98.6284 143.404 90.779 141.241C96.6667 138.832 102.388 136.031 107.903 132.86C113.444 129.662 118.767 126.096 123.835 122.19C121.786 130.062 118.77 137.649 114.853 144.777ZM104.989 127.812C97.6089 132.073 89.8502 135.643 81.8127 138.472C73.7564 135.65 65.9818 132.08 58.5901 127.812C51.2412 123.582 44.2952 118.687 37.8404 113.189C34.7057 96.3532 34.6723 79.0877 37.7403 62.24C44.2098 56.6672 51.1918 51.715 58.5901 47.4513C65.9778 43.1703 73.7444 39.5832 81.7927 36.7328C97.9558 42.4697 112.925 51.1305 125.954 62.284C127.494 70.5858 128.267 79.013 128.263 87.4562C128.279 96.0369 127.498 104.602 125.93 113.037C119.422 118.598 112.414 123.544 104.994 127.812H104.989ZM39.9328 122.331C44.9438 126.183 50.2016 129.699 55.6743 132.86C61.1763 136.027 66.8772 138.836 72.7409 141.268C64.9542 143.404 56.9367 144.578 48.8645 144.767C44.9771 137.683 41.9772 130.147 39.9328 122.331ZM30.9531 106.831C25.1415 101.132 20.0558 94.7371 15.8122 87.7925C20.0291 80.8105 25.0894 74.3757 30.8784 68.6308C29.209 81.307 29.2357 94.15 30.9531 106.819V106.831ZM48.7364 30.4034C56.8913 30.5862 64.9929 31.7792 72.8543 33.9571C66.952 36.3925 61.2177 39.2163 55.689 42.411C50.1776 45.5924 44.8811 49.1287 39.8301 52.9987C41.8571 45.1307 44.8464 37.5415 48.731 30.4034H48.7364ZM123.89 53.1188C118.807 49.1995 113.472 45.6204 107.918 42.4017C102.388 39.2069 96.6507 36.3832 90.747 33.9478C98.6338 31.7619 106.761 30.5675 114.944 30.3914C118.85 37.5709 121.855 45.2041 123.89 53.1188ZM132.87 68.7349C138.619 74.4264 143.643 80.8079 147.824 87.7338C143.618 94.6411 138.577 101.005 132.816 106.682C133.67 100.309 134.096 93.8857 134.093 87.4562C134.089 81.1962 133.677 74.9428 132.86 68.7349H132.87ZM104.942 5.83034C108.162 5.83034 110.772 8.44058 110.772 11.6607C110.772 14.8808 108.162 17.491 104.942 17.491C101.722 17.491 99.1115 14.8808 99.1115 11.6607C99.1115 8.44058 101.722 5.83034 104.942 5.83034ZM81.8674 5.83034C85.9802 5.86771 90.0344 6.82186 93.7322 8.62073C93.4466 9.60958 93.2945 10.6331 93.2812 11.662C93.2598 18.0808 98.4469 23.3013 104.866 23.3227C106.515 23.328 108.147 22.9824 109.653 22.3085C110.281 23.1398 110.894 23.9926 111.491 24.868C101.379 25.4391 91.3902 27.3781 81.798 30.6342C72.2138 27.3781 62.2332 25.4378 52.1273 24.868C60.1875 12.9938 70.559 5.83034 81.8674 5.83034ZM11.1068 46.8188C16.7303 37.0758 28.0293 31.6778 42.2361 30.5955C37.7283 39.5899 34.4508 49.1501 32.4931 59.0185C24.8506 65.6696 18.1462 73.3281 12.5641 81.7834C6.44549 68.9777 5.49534 56.5351 11.1068 46.8188ZM11.6553 139.93C8.43519 139.93 5.82495 137.32 5.82495 134.1C5.82495 130.88 8.43519 128.27 11.6553 128.27C14.8754 128.27 17.4856 130.88 17.4856 134.1C17.4856 137.32 14.8754 139.93 11.6553 139.93ZM22.191 139.018C22.9236 137.482 23.3079 135.802 23.3159 134.1C23.3159 127.66 18.0955 122.438 11.6553 122.438C10.6571 122.452 9.66424 122.594 8.70208 122.864C6.09585 114.223 7.71991 104 12.7402 93.5254C18.2956 101.962 24.9627 109.611 32.5625 116.265C34.5482 126.105 37.851 135.635 42.3816 144.594C35.3262 144.225 28.4363 142.322 22.191 139.018ZM81.8674 169.082C70.6591 169.082 60.365 162.051 52.3368 150.366C62.324 149.75 72.1844 147.813 81.6632 144.609C91.2301 147.915 101.205 149.894 111.309 150.492C103.294 162.103 93.0356 169.082 81.8674 169.082ZM139.924 148.675C136.704 148.675 134.093 146.065 134.093 142.845C134.093 139.625 136.704 137.015 139.924 137.015C143.144 137.015 145.754 139.625 145.754 142.845C145.754 146.065 143.144 148.675 139.924 148.675ZM152.485 128.445C151.203 130.605 149.623 132.574 147.792 134.295C143.094 129.926 135.743 130.191 131.374 134.889C129.364 137.051 128.252 139.894 128.263 142.845C128.263 143.119 128.325 143.376 128.345 143.644C126.041 144.081 123.713 144.386 121.375 144.556C125.918 135.555 129.225 125.98 131.204 116.091C138.757 109.459 145.383 101.841 150.905 93.4414C157.301 106.767 157.902 119.061 152.485 128.445Z" fill="url(#paint3_linear_59302_122)"/>
<defs>
<linearGradient id="paint0_linear_59302_122" x1="59.5593" y1="102.085" x2="68.3048" y2="129.309" gradientUnits="userSpaceOnUse">
<stop stop-color="#7B3EC8"/>
<stop offset="1" stop-color="#D7D1DF"/>
</linearGradient>
<linearGradient id="paint1_linear_59302_122" x1="55.5155" y1="67.435" x2="68.0786" y2="80.9201" gradientUnits="userSpaceOnUse">
<stop stop-color="#7B3EC8"/>
<stop offset="1" stop-color="#D7D1DF"/>
</linearGradient>
<linearGradient id="paint2_linear_59302_122" x1="95.0949" y1="67.435" x2="107.658" y2="80.9201" gradientUnits="userSpaceOnUse">
<stop stop-color="#7B3EC8"/>
<stop offset="1" stop-color="#D7D1DF"/>
</linearGradient>
<linearGradient id="paint3_linear_59302_122" x1="25.6373" y1="37.5214" x2="142.505" y2="154.386" gradientUnits="userSpaceOnUse">
<stop stop-color="#7B3EC8"/>
<stop offset="1" stop-color="#D7D1DF"/>
</linearGradient>
</defs>
</svg>
